<svg width="32" height="31" viewBox="0 0 32 31" fill="none" xmlns="http://www.w3.org/2000/svg">
  <path d="M30.3158 5.05264H23.5789C23.1323 5.05264 22.7039 5.23008 22.388 5.54593C22.0722 5.86178 21.8947 6.29017 21.8947 6.73685C21.8947 7.18353 22.0722 7.61191 22.388 7.92776C22.7039 8.24361 23.1323 8.42106 23.5789 8.42106H30.3158C30.7625 8.42106 31.1909 8.24361 31.5067 7.92776C31.8226 7.61191 32 7.18353 32 6.73685C32 6.29017 31.8226 5.86178 31.5067 5.54593C31.1909 5.23008 30.7625 5.05264 30.3158 5.05264ZM11.7895 13.4737C13.1219 13.4737 14.4244 13.0786 15.5323 12.3383C16.6401 11.5981 17.5036 10.5459 18.0135 9.31493C18.5234 8.08393 18.6568 6.72937 18.3969 5.42255C18.1369 4.11573 17.4953 2.91534 16.5531 1.97318C15.611 1.03101 14.4106 0.389392 13.1038 0.12945C11.7969 -0.130493 10.4424 0.00291895 9.2114 0.512815C7.9804 1.02271 6.92825 1.88619 6.18799 2.99406C5.44774 4.10192 5.05263 5.40442 5.05263 6.73685C5.05263 8.52357 5.7624 10.2371 7.02581 11.5005C8.28921 12.7639 10.0028 13.4737 11.7895 13.4737ZM11.7895 3.36842C12.4557 3.36842 13.1069 3.56598 13.6609 3.93611C14.2148 4.30623 14.6465 4.83231 14.9015 5.44781C15.1564 6.0633 15.2231 6.74058 15.0932 7.39399C14.9632 8.0474 14.6424 8.6476 14.1713 9.11868C13.7002 9.58976 13.1 9.91057 12.4466 10.0405C11.7932 10.1705 11.1159 10.1038 10.5004 9.84886C9.88494 9.59391 9.35886 9.16218 8.98873 8.60824C8.61861 8.05431 8.42105 7.40306 8.42105 6.73685C8.42105 5.84349 8.77594 4.98671 9.40764 4.35501C10.0393 3.72331 10.8961 3.36842 11.7895 3.36842ZM11.7895 16.8421C8.66271 16.8421 5.66401 18.0842 3.45306 20.2952C1.2421 22.5061 0 25.5048 0 28.6316C0 29.0783 0.177443 29.5067 0.493294 29.8225C0.809144 30.1384 1.23753 30.3158 1.68421 30.3158C2.13089 30.3158 2.55928 30.1384 2.87513 29.8225C3.19098 29.5067 3.36842 29.0783 3.36842 28.6316C3.36842 26.3982 4.25564 24.2563 5.83489 22.677C7.41414 21.0977 9.55607 20.2105 11.7895 20.2105C14.0229 20.2105 16.1648 21.0977 17.7441 22.677C19.3233 24.2563 20.2105 26.3982 20.2105 28.6316C20.2105 29.0783 20.388 29.5067 20.7038 29.8225C21.0197 30.1384 21.4481 30.3158 21.8947 30.3158C22.3414 30.3158 22.7698 30.1384 23.0857 29.8225C23.4015 29.5067 23.5789 29.0783 23.5789 28.6316C23.5789 25.5048 22.3368 22.5061 20.1259 20.2952C17.9149 18.0842 14.9162 16.8421 11.7895 16.8421Z" fill="#F5FBFC"/>
</svg>
